<svg xmlns="http://www.w3.org/2000/svg" version="1.1" xmlns:xlink="http://www.w3.org/1999/xlink" xmlns:svgjs="http://svgjs.com/svgjs" width="930" height="930" preserveAspectRatio="none" viewBox="0 0 930 930"><g mask="url(&quot;#SvgjsMask2058&quot;)" fill="none"><use xlink:href="#SvgjsG2061" transform="translate(0, 0)" fill="rgba(0, 139, 163, 1)"></use><use xlink:href="#SvgjsG2061" transform="translate(0, 520)" fill="rgba(0, 139, 163, 1)"></use><use xlink:href="#SvgjsG2061" transform="translate(520, 0)" fill="rgba(170, 0, 199, 1)"></use><use xlink:href="#SvgjsG2061" transform="translate(520, 520)" fill="rgba(170, 0, 199, 1)"></use></g><defs><mask id="SvgjsMask2058"><rect width="930" height="930" fill="#ffffff"></rect></mask><g id="SvgjsG2059"><path d="M0.004 3.988L0 1.202l6.565 0.842 0.004 1.112L0.004 3.988zM16 1.202v2.786l-6.565-0.84V2.037L16 1.202z m-10.321 0.102a0.101 0.101 0 0 0-0.06 0.094c0 0.056 0.044 0.1 0.102 0.1H10.277a0.102 0.102 0 0 0 0.104-0.1c0-0.042-0.025-0.075-0.06-0.094L8 0 5.679 1.304zM11.534 15.175l-1.552-11.096h0.399c0.117 0 0.211-0.094 0.211-0.206 0-0.117-0.094-0.211-0.211-0.211H5.619c-0.117 0-0.212 0.094-0.211 0.211 0 0.112 0.094 0.206 0.211 0.206h0.398l-1.552 11.096H11.534z"></path></g><g id="SvgjsG2060"><path d="M8.762 15.71c0.785-0.343 1.152-0.297 1.795 0.042 0.651 0.339 1.298 0.339 2.065-0.051 0.759-0.389 1.38-0.167 1.729 0.043 0.285 0.174 0.573 0.244 1.007 0.243v-1.553c-0.652-0.003-0.932-0.226-0.932-0.226-0.672-0.413-1.288-0.33-2.131 0.108-0.485 0.252-1.25 0.186-1.796-0.092-0.742-0.394-1.165-0.298-1.947 0.051-0.607 0.269-1.154 0.268-1.754 0-0.786-0.35-1.189-0.444-1.938-0.051-0.539 0.278-1.316 0.344-1.796 0.092-0.848-0.439-1.453-0.522-2.123-0.108 0 0-0.292 0.222-0.932 0.226v1.552c0.404 0 0.719-0.078 0.991-0.243 0.343-0.212 0.985-0.431 1.745-0.042 0.766 0.389 1.413 0.389 2.056 0.05 0.65-0.338 1.009-0.399 1.796-0.059 0.763 0.388 1.517 0.353 2.165 0.017z m5.672-3.768c-1.32-0.724-1.895 0.154-2.601 0.15V8.585l1.091-2.527c0.167-0.386 0.001-0.741-0.395-0.914l-0.663-0.268V2.694H10.582V1.544H8.795V0H6.571v1.544h-1.787v1.15h-1.284v2.182l-0.664 0.268c-0.397 0.173-0.563 0.528-0.394 0.915l1.091 2.526V12.093c-0.708 0.003-1.311-0.861-2.602-0.143 0 0-0.37 0.208-0.931 0.218v1.511c0.438-0.034 0.648-0.104 0.982-0.286 0.35-0.201 0.994-0.392 1.754 0 0.766 0.386 1.413 0.386 2.056 0.05 0.651-0.341 1.215-0.357 1.821-0.05 0.762 0.386 1.361 0.39 2.132 0.009 0.619-0.317 1.177-0.299 1.821 0.041 0.651 0.336 1.297 0.336 2.064-0.05 0.759-0.392 1.4-0.195 1.754 0 0.312 0.164 0.531 0.251 0.982 0.286V12.16c-0.574-0.015-0.932-0.218-0.932-0.218zM10.918 4.473l-3.239-1.334-3.231 1.334v-0.881h1.275v-1.133h3.919v1.133h1.276v0.881z"></path></g><g id="SvgjsG2061"><use xlink:href="#SvgjsG2059" transform="translate(0, 0) scale(2)" fill="rgba(170, 0, 199, 1)"></use><use xlink:href="#SvgjsG2060" transform="translate(0, 52) scale(2)" fill="rgba(170, 0, 199, 1)"></use><use xlink:href="#SvgjsG2059" transform="translate(0, 104) scale(2)" fill="rgba(0, 139, 163, 1)"></use><use xlink:href="#SvgjsG2059" transform="translate(0, 156) scale(2)" fill="rgba(170, 0, 199, 1)"></use><use xlink:href="#SvgjsG2059" transform="translate(0, 208) scale(2)" fill="rgba(0, 139, 163, 1)"></use><use xlink:href="#SvgjsG2060" transform="translate(0, 260) scale(2)" fill="rgba(170, 0, 199, 1)"></use><use xlink:href="#SvgjsG2060" transform="translate(0, 312) scale(2)" fill="rgba(0, 139, 163, 1)"></use><use xlink:href="#SvgjsG2059" transform="translate(0, 364) scale(2)" fill="rgba(170, 0, 199, 1)"></use><use xlink:href="#SvgjsG2059" transform="translate(0, 416) scale(2)" fill="rgba(170, 0, 199, 1)"></use><use xlink:href="#SvgjsG2060" transform="translate(0, 468) scale(2)" fill="rgba(170, 0, 199, 1)"></use><use xlink:href="#SvgjsG2059" transform="translate(52, 0) scale(2)" fill="rgba(170, 0, 199, 1)"></use><use xlink:href="#SvgjsG2060" transform="translate(52, 52) scale(2)" fill="rgba(170, 0, 199, 1)"></use><use xlink:href="#SvgjsG2059" transform="translate(52, 104) scale(2)" fill="rgba(170, 0, 199, 1)"></use><use xlink:href="#SvgjsG2059" transform="translate(52, 156) scale(2)" fill="rgba(170, 0, 199, 1)"></use><use xlink:href="#SvgjsG2060" transform="translate(52, 208) scale(2)" fill="rgba(0, 139, 163, 1)"></use><use xlink:href="#SvgjsG2059" transform="translate(52, 260) scale(2)" fill="rgba(170, 0, 199, 1)"></use><use xlink:href="#SvgjsG2059" transform="translate(52, 312) scale(2)" fill="rgba(170, 0, 199, 1)"></use><use xlink:href="#SvgjsG2059" transform="translate(52, 364) scale(2)" fill="rgba(0, 139, 163, 1)"></use><use xlink:href="#SvgjsG2059" transform="translate(52, 416) scale(2)" fill="rgba(0, 139, 163, 1)"></use><use xlink:href="#SvgjsG2059" transform="translate(52, 468) scale(2)" fill="rgba(0, 139, 163, 1)"></use><use xlink:href="#SvgjsG2060" transform="translate(104, 0) scale(2)" fill="rgba(0, 139, 163, 1)"></use><use xlink:href="#SvgjsG2059" transform="translate(104, 52) scale(2)" fill="rgba(170, 0, 199, 1)"></use><use xlink:href="#SvgjsG2059" transform="translate(104, 104) scale(2)" fill="rgba(170, 0, 199, 1)"></use><use xlink:href="#SvgjsG2059" transform="translate(104, 156) scale(2)" fill="rgba(0, 139, 163, 1)"></use><use xlink:href="#SvgjsG2059" transform="translate(104, 208) scale(2)" fill="rgba(170, 0, 199, 1)"></use><use xlink:href="#SvgjsG2060" transform="translate(104, 260) scale(2)" fill="rgba(170, 0, 199, 1)"></use><use xlink:href="#SvgjsG2060" transform="translate(104, 312) scale(2)" fill="rgba(0, 139, 163, 1)"></use><use xlink:href="#SvgjsG2060" transform="translate(104, 364) scale(2)" fill="rgba(170, 0, 199, 1)"></use><use xlink:href="#SvgjsG2059" transform="translate(104, 416) scale(2)" fill="rgba(0, 139, 163, 1)"></use><use xlink:href="#SvgjsG2060" transform="translate(104, 468) scale(2)" fill="rgba(0, 139, 163, 1)"></use><use xlink:href="#SvgjsG2059" transform="translate(156, 0) scale(2)" fill="rgba(0, 139, 163, 1)"></use><use xlink:href="#SvgjsG2060" transform="translate(156, 52) scale(2)" fill="rgba(170, 0, 199, 1)"></use><use xlink:href="#SvgjsG2059" transform="translate(156, 104) scale(2)" fill="rgba(170, 0, 199, 1)"></use><use xlink:href="#SvgjsG2060" transform="translate(156, 156) scale(2)" fill="rgba(170, 0, 199, 1)"></use><use xlink:href="#SvgjsG2059" transform="translate(156, 208) scale(2)" fill="rgba(170, 0, 199, 1)"></use><use xlink:href="#SvgjsG2059" transform="translate(156, 260) scale(2)" fill="rgba(170, 0, 199, 1)"></use><use xlink:href="#SvgjsG2059" transform="translate(156, 312) scale(2)" fill="rgba(0, 139, 163, 1)"></use><use xlink:href="#SvgjsG2059" transform="translate(156, 364) scale(2)" fill="rgba(170, 0, 199, 1)"></use><use xlink:href="#SvgjsG2059" transform="translate(156, 416) scale(2)" fill="rgba(170, 0, 199, 1)"></use><use xlink:href="#SvgjsG2060" transform="translate(156, 468) scale(2)" fill="rgba(170, 0, 199, 1)"></use><use xlink:href="#SvgjsG2059" transform="translate(208, 0) scale(2)" fill="rgba(170, 0, 199, 1)"></use><use xlink:href="#SvgjsG2059" transform="translate(208, 52) scale(2)" fill="rgba(170, 0, 199, 1)"></use><use xlink:href="#SvgjsG2060" transform="translate(208, 104) scale(2)" fill="rgba(0, 139, 163, 1)"></use><use xlink:href="#SvgjsG2060" transform="translate(208, 156) scale(2)" fill="rgba(170, 0, 199, 1)"></use><use xlink:href="#SvgjsG2060" transform="translate(208, 208) scale(2)" fill="rgba(0, 139, 163, 1)"></use><use xlink:href="#SvgjsG2060" transform="translate(208, 260) scale(2)" fill="rgba(0, 139, 163, 1)"></use><use xlink:href="#SvgjsG2059" transform="translate(208, 312) scale(2)" fill="rgba(170, 0, 199, 1)"></use><use xlink:href="#SvgjsG2059" transform="translate(208, 364) scale(2)" fill="rgba(170, 0, 199, 1)"></use><use xlink:href="#SvgjsG2059" transform="translate(208, 416) scale(2)" fill="rgba(170, 0, 199, 1)"></use><use xlink:href="#SvgjsG2059" transform="translate(208, 468) scale(2)" fill="rgba(0, 139, 163, 1)"></use><use xlink:href="#SvgjsG2059" transform="translate(260, 0) scale(2)" fill="rgba(170, 0, 199, 1)"></use><use xlink:href="#SvgjsG2060" transform="translate(260, 52) scale(2)" fill="rgba(0, 139, 163, 1)"></use><use xlink:href="#SvgjsG2060" transform="translate(260, 104) scale(2)" fill="rgba(170, 0, 199, 1)"></use><use xlink:href="#SvgjsG2059" transform="translate(260, 156) scale(2)" fill="rgba(0, 139, 163, 1)"></use><use xlink:href="#SvgjsG2060" transform="translate(260, 208) scale(2)" fill="rgba(170, 0, 199, 1)"></use><use xlink:href="#SvgjsG2059" transform="translate(260, 260) scale(2)" fill="rgba(170, 0, 199, 1)"></use><use xlink:href="#SvgjsG2060" transform="translate(260, 312) scale(2)" fill="rgba(0, 139, 163, 1)"></use><use xlink:href="#SvgjsG2059" transform="translate(260, 364) scale(2)" fill="rgba(170, 0, 199, 1)"></use><use xlink:href="#SvgjsG2060" transform="translate(260, 416) scale(2)" fill="rgba(170, 0, 199, 1)"></use><use xlink:href="#SvgjsG2060" transform="translate(260, 468) scale(2)" fill="rgba(170, 0, 199, 1)"></use><use xlink:href="#SvgjsG2060" transform="translate(312, 0) scale(2)" fill="rgba(0, 139, 163, 1)"></use><use xlink:href="#SvgjsG2059" transform="translate(312, 52) scale(2)" fill="rgba(0, 139, 163, 1)"></use><use xlink:href="#SvgjsG2060" transform="translate(312, 104) scale(2)" fill="rgba(0, 139, 163, 1)"></use><use xlink:href="#SvgjsG2060" transform="translate(312, 156) scale(2)" fill="rgba(0, 139, 163, 1)"></use><use xlink:href="#SvgjsG2059" transform="translate(312, 208) scale(2)" fill="rgba(170, 0, 199, 1)"></use><use xlink:href="#SvgjsG2059" transform="translate(312, 260) scale(2)" fill="rgba(0, 139, 163, 1)"></use><use xlink:href="#SvgjsG2060" transform="translate(312, 312) scale(2)" fill="rgba(170, 0, 199, 1)"></use><use xlink:href="#SvgjsG2060" transform="translate(312, 364) scale(2)" fill="rgba(170, 0, 199, 1)"></use><use xlink:href="#SvgjsG2059" transform="translate(312, 416) scale(2)" fill="rgba(170, 0, 199, 1)"></use><use xlink:href="#SvgjsG2060" transform="translate(312, 468) scale(2)" fill="rgba(170, 0, 199, 1)"></use><use xlink:href="#SvgjsG2059" transform="translate(364, 0) scale(2)" fill="rgba(0, 139, 163, 1)"></use><use xlink:href="#SvgjsG2060" transform="translate(364, 52) scale(2)" fill="rgba(170, 0, 199, 1)"></use><use xlink:href="#SvgjsG2059" transform="translate(364, 104) scale(2)" fill="rgba(170, 0, 199, 1)"></use><use xlink:href="#SvgjsG2059" transform="translate(364, 156) scale(2)" fill="rgba(170, 0, 199, 1)"></use><use xlink:href="#SvgjsG2060" transform="translate(364, 208) scale(2)" fill="rgba(170, 0, 199, 1)"></use><use xlink:href="#SvgjsG2060" transform="translate(364, 260) scale(2)" fill="rgba(170, 0, 199, 1)"></use><use xlink:href="#SvgjsG2059" transform="translate(364, 312) scale(2)" fill="rgba(170, 0, 199, 1)"></use><use xlink:href="#SvgjsG2060" transform="translate(364, 364) scale(2)" fill="rgba(170, 0, 199, 1)"></use><use xlink:href="#SvgjsG2060" transform="translate(364, 416) scale(2)" fill="rgba(0, 139, 163, 1)"></use><use xlink:href="#SvgjsG2060" transform="translate(364, 468) scale(2)" fill="rgba(0, 139, 163, 1)"></use><use xlink:href="#SvgjsG2060" transform="translate(416, 0) scale(2)" fill="rgba(0, 139, 163, 1)"></use><use xlink:href="#SvgjsG2060" transform="translate(416, 52) scale(2)" fill="rgba(170, 0, 199, 1)"></use><use xlink:href="#SvgjsG2060" transform="translate(416, 104) scale(2)" fill="rgba(170, 0, 199, 1)"></use><use xlink:href="#SvgjsG2059" transform="translate(416, 156) scale(2)" fill="rgba(170, 0, 199, 1)"></use><use xlink:href="#SvgjsG2060" transform="translate(416, 208) scale(2)" fill="rgba(170, 0, 199, 1)"></use><use xlink:href="#SvgjsG2059" transform="translate(416, 260) scale(2)" fill="rgba(0, 139, 163, 1)"></use><use xlink:href="#SvgjsG2059" transform="translate(416, 312) scale(2)" fill="rgba(170, 0, 199, 1)"></use><use xlink:href="#SvgjsG2059" transform="translate(416, 364) scale(2)" fill="rgba(0, 139, 163, 1)"></use><use xlink:href="#SvgjsG2060" transform="translate(416, 416) scale(2)" fill="rgba(0, 139, 163, 1)"></use><use xlink:href="#SvgjsG2060" transform="translate(416, 468) scale(2)" fill="rgba(170, 0, 199, 1)"></use><use xlink:href="#SvgjsG2060" transform="translate(468, 0) scale(2)" fill="rgba(170, 0, 199, 1)"></use><use xlink:href="#SvgjsG2060" transform="translate(468, 52) scale(2)" fill="rgba(170, 0, 199, 1)"></use><use xlink:href="#SvgjsG2059" transform="translate(468, 104) scale(2)" fill="rgba(0, 139, 163, 1)"></use><use xlink:href="#SvgjsG2059" transform="translate(468, 156) scale(2)" fill="rgba(170, 0, 199, 1)"></use><use xlink:href="#SvgjsG2060" transform="translate(468, 208) scale(2)" fill="rgba(0, 139, 163, 1)"></use><use xlink:href="#SvgjsG2060" transform="translate(468, 260) scale(2)" fill="rgba(170, 0, 199, 1)"></use><use xlink:href="#SvgjsG2059" transform="translate(468, 312) scale(2)" fill="rgba(170, 0, 199, 1)"></use><use xlink:href="#SvgjsG2060" transform="translate(468, 364) scale(2)" fill="rgba(170, 0, 199, 1)"></use><use xlink:href="#SvgjsG2059" transform="translate(468, 416) scale(2)" fill="rgba(0, 139, 163, 1)"></use><use xlink:href="#SvgjsG2059" transform="translate(468, 468) scale(2)" fill="rgba(170, 0, 199, 1)"></use></g></defs></svg>